<mxfile host="app.diagrams.net" agent="Mozilla/5.0 (Windows NT 10.0; Win64; x64) AppleWebKit/537.36 (KHTML, like Gecko) Chrome/140.0.0.0 Safari/537.36" version="28.2.5">
  <diagram name="Page-1" id="3QiEXsypofzFkc-jLGGt">
    <mxGraphModel dx="1213" dy="730" grid="1" gridSize="10" guides="1" tooltips="1" connect="1" arrows="1" fold="1" page="1" pageScale="1" pageWidth="850" pageHeight="1100" math="0" shadow="0">
      <root>
        <mxCell id="0" />
        <mxCell id="1" parent="0" />
        <mxCell id="Z7PhxlesQy63yYeKzFG8-1" value="Developer" style="shape=umlActor;verticalLabelPosition=bottom;verticalAlign=top;html=1;" vertex="1" parent="1">
          <mxGeometry x="200" y="240" width="30" height="60" as="geometry" />
        </mxCell>
        <mxCell id="Z7PhxlesQy63yYeKzFG8-2" value="Archive Manager" style="shape=umlActor;verticalLabelPosition=bottom;verticalAlign=top;html=1;" vertex="1" parent="1">
          <mxGeometry x="200" y="430" width="30" height="60" as="geometry" />
        </mxCell>
        <mxCell id="Z7PhxlesQy63yYeKzFG8-5" value="archive server" style="shape=umlFrame;whiteSpace=wrap;html=1;pointerEvents=0;width=90;height=30;" vertex="1" parent="1">
          <mxGeometry x="340" y="270" width="320" height="300" as="geometry" />
        </mxCell>
        <mxCell id="Z7PhxlesQy63yYeKzFG8-6" value="Configure Downloader" style="ellipse;whiteSpace=wrap;html=1;" vertex="1" parent="1">
          <mxGeometry x="390" y="340" width="140" height="70" as="geometry" />
        </mxCell>
        <mxCell id="Z7PhxlesQy63yYeKzFG8-7" value="Run Downloader" style="ellipse;whiteSpace=wrap;html=1;" vertex="1" parent="1">
          <mxGeometry x="390" y="440" width="140" height="70" as="geometry" />
        </mxCell>
      </root>
    </mxGraphModel>
  </diagram>
</mxfile>
